<svg width="41" height="40" viewBox="0 0 41 40" fill="none" xmlns="http://www.w3.org/2000/svg">
<rect x="0.5" width="40" height="40" rx="8" fill="#65AAEA"/>
<path d="M29.0715 19V16H27.5715V19H24.5715V20.5H27.5715V23.5H29.0715V20.5H32.0715V19H29.0715Z" fill="white"/>
<path d="M15.5715 18V21H19.815C19.1955 22.746 17.5275 24 15.5715 24C13.0905 24 11.0715 21.981 11.0715 19.5C11.0715 17.019 13.0905 15 15.5715 15C16.647 15 17.682 15.3855 18.486 16.086L20.457 13.824C19.107 12.648 17.373 12 15.5715 12C11.436 12 8.07147 15.3645 8.07147 19.5C8.07147 23.6355 11.436 27 15.5715 27C19.707 27 23.0715 23.6355 23.0715 19.5V18H15.5715Z" fill="white"/>
</svg>
